<?xml version="1.0" encoding="UTF-8" standalone="no"?>
<!-- Created with Inkscape (http://www.inkscape.org/) -->

<svg
   xmlns:dc="http://purl.org/dc/elements/1.1/"
   xmlns:cc="http://creativecommons.org/ns#"
   xmlns:rdf="http://www.w3.org/1999/02/22-rdf-syntax-ns#"
   xmlns:svg="http://www.w3.org/2000/svg"
   xmlns="http://www.w3.org/2000/svg"
   xmlns:xlink="http://www.w3.org/1999/xlink"
   xmlns:sodipodi="http://sodipodi.sourceforge.net/DTD/sodipodi-0.dtd"
   xmlns:inkscape="http://www.inkscape.org/namespaces/inkscape"
   id="svg2"
   version="1.1"
   inkscape:version="0.48.1 "
   width="257"
   height="287"
   sodipodi:docname="Coat_of_arms_of_Vevčani_Municipality.svg">
  <metadata
     id="metadata8">
    <rdf:RDF>
      <cc:Work
         rdf:about="">
        <dc:format>image/svg+xml</dc:format>
        <dc:type
           rdf:resource="http://purl.org/dc/dcmitype/StillImage" />
        <dc:title />
      </cc:Work>
    </rdf:RDF>
  </metadata>
  <defs
     id="defs6">
    <radialGradient
       r="300"
       fy="226.33101"
       fx="221.44487"
       cy="226.33101"
       cx="221.44487"
       gradientTransform="matrix(0.42252733,0,0,0.40007584,-22.788535,-22.717763)"
       gradientUnits="userSpaceOnUse"
       id="radialGradient3035"
       xlink:href="#linearGradient2893"
       inkscape:collect="always" />
    <linearGradient
       id="linearGradient2893">
      <stop
         id="stop2895"
         style="stop-color:#ffffff;stop-opacity:0.3137255"
         offset="0" />
      <stop
         id="stop2897"
         style="stop-color:#ffffff;stop-opacity:0.25098041"
         offset="0.19" />
      <stop
         id="stop2901"
         style="stop-color:#6b6b6b;stop-opacity:0.1254902"
         offset="0.60000002" />
      <stop
         id="stop2899"
         style="stop-color:#000000;stop-opacity:0.1254902"
         offset="1" />
    </linearGradient>
    <inkscape:perspective
       id="perspective51"
       inkscape:persp3d-origin="475.40198 : 333.74902 : 1"
       inkscape:vp_z="950.80396 : 500.62354 : 1"
       inkscape:vp_y="0 : 1000 : 0"
       inkscape:vp_x="0 : 500.62354 : 1"
       sodipodi:type="inkscape:persp3d" />
    <inkscape:perspective
       sodipodi:type="inkscape:persp3d"
       inkscape:vp_x="0 : 526.18109 : 1"
       inkscape:vp_y="0 : 1000 : 0"
       inkscape:vp_z="744.09448 : 526.18109 : 1"
       inkscape:persp3d-origin="372.04724 : 350.78739 : 1"
       id="perspective2498" />
    <inkscape:perspective
       id="perspective2464"
       inkscape:persp3d-origin="372.04724 : 350.78739 : 1"
       inkscape:vp_z="744.09448 : 526.18109 : 1"
       inkscape:vp_y="0 : 1000 : 0"
       inkscape:vp_x="0 : 526.18109 : 1"
       sodipodi:type="inkscape:persp3d" />
    <inkscape:perspective
       id="perspective2535"
       inkscape:persp3d-origin="372.04724 : 350.78739 : 1"
       inkscape:vp_z="744.09448 : 526.18109 : 1"
       inkscape:vp_y="0 : 1000 : 0"
       inkscape:vp_x="0 : 526.18109 : 1"
       sodipodi:type="inkscape:persp3d" />
    <inkscape:perspective
       id="perspective9"
       inkscape:persp3d-origin="372.04724 : 350.78739 : 1"
       inkscape:vp_z="744.09448 : 526.18109 : 1"
       inkscape:vp_y="0 : 1000 : 0"
       inkscape:vp_x="0 : 526.18109 : 1"
       sodipodi:type="inkscape:persp3d" />
  </defs>
  <sodipodi:namedview
     pagecolor="#ffffff"
     bordercolor="#666666"
     borderopacity="1"
     objecttolerance="10"
     gridtolerance="10"
     guidetolerance="10"
     inkscape:pageopacity="0"
     inkscape:pageshadow="2"
     inkscape:window-width="1366"
     inkscape:window-height="706"
     id="namedview4"
     showgrid="false"
     inkscape:zoom="0.34051931"
     inkscape:cx="129.27416"
     inkscape:cy="65.11955"
     inkscape:window-x="-8"
     inkscape:window-y="-8"
     inkscape:window-maximized="1"
     inkscape:current-layer="svg2" />
  <text
     xml:space="preserve"
     style="font-size:40px;font-style:normal;font-weight:normal;line-height:125%;letter-spacing:0px;word-spacing:0px;fill:#000000;fill-opacity:1;stroke:none;font-family:Sans"
     x="-199.70135"
     y="82.84433"
     id="text3920"
     sodipodi:linespacing="125%"><tspan
       sodipodi:role="line"
       id="tspan3922"
       x="-199.70135"
       y="82.84433" /></text>
  <g
     id="g4352"
     transform="matrix(0.97690494,0,0,0.93745712,3.4727994,-1.4179931)">
    <path
       sodipodi:nodetypes="cssscccscsssccc"
       id="path2516"
       d="M 115.11715,298.22435 C 87.425448,288.62614 69.916213,278.43498 51.090611,260.95798 27.901196,239.42975 14.714456,215.09551 6.127529,177.98495 3.9256756,168.46925 3.8330293,165.26408 3.496806,86.997453 L 3.1483303,5.8730992 l 125.3399697,0 125.33993,0 -0.0188,79.6448768 c -0.0101,43.804684 -0.4786,83.646514 -1.04067,88.537394 -1.88871,16.43243 -8.71752,37.17672 -17.72084,53.831 -9.63807,17.82842 -20.55254,30.81525 -36.06946,42.91783 -17.55699,13.69375 -29.39309,20.4481 -58.21436,29.47852 l -10.35133,3.24333 -15.29575,-5.3017 z"
       style="fill:#e70203;fill-opacity:1;stroke:#f4c400;stroke-width:7.25439739;stroke-miterlimit:4;stroke-opacity:1;stroke-dasharray:none"
       inkscape:connector-curvature="0" />
    <path
       inkscape:connector-curvature="0"
       id="path4125"
       d="m 212.78158,31.646935 c -0.92782,-0.942171 -0.0472,-3.774742 1.94896,-6.268992 1.24426,-1.554709 4.28537,-4.363824 5.33788,-4.930664 1.55885,-0.839532 2.31209,-0.953939 6.32302,-0.960392 6.07235,-0.0097 7.36489,0.391071 10.48154,3.250504 2.15466,1.97684 3.25602,3.603762 3.84403,5.678393 0.50925,1.796741 -0.041,3.41034 -1.16304,3.41034 -0.63638,0 -1.59494,-1.018566 -2.47868,-2.633834 -1.08353,-1.980432 -2.4131,-3.407058 -4.09597,-4.394941 -4.02025,-2.359984 -8.7352,-2.369192 -12.18858,-0.0238 -0.93884,0.637628 -3.03347,3.225105 -3.89176,4.807476 -0.39454,0.727379 -1.04871,1.57874 -1.45371,1.891914 -0.8781,0.679012 -2.0885,0.758079 -2.66369,0.173999 l 0,0 z"
       style="fill:#cccccc;fill-opacity:1;fill-rule:evenodd;stroke:none" />
    <path
       inkscape:connector-curvature="0"
       id="path4127"
       d="m 210.86287,42.463057 c -3.12469,-0.857625 -5.69877,-2.530148 -7.50531,-4.876635 -1.20815,-1.569225 -1.76983,-2.6995 -2.61739,-5.26706 -1.63193,-4.94366 -4.69094,-8.084215 -8.81704,-9.052076 -4.72762,-1.10896 -10.13027,1.58876 -11.29484,5.639885 -0.57912,2.014575 -1.69808,2.921098 -3.69117,2.990406 -0.89729,0.0312 -1.14156,-0.05671 -1.64152,-0.59081 -0.73578,-0.786011 -0.63162,-1.548187 0.50525,-3.696909 3.86378,-7.302694 13.21334,-10.349569 20.94514,-6.825693 4.10958,1.872999 6.97361,5.339497 8.58695,10.393302 0.78334,2.453798 1.97701,4.373755 3.55273,5.7144 1.88532,1.60405 3.45554,2.151264 6.21579,2.166148 1.94719,0.01054 2.25367,-0.04851 3.73886,-0.71983 2.30502,-1.041905 4.5134,-3.098407 5.74198,-5.347117 0.93308,-1.707839 2.07447,-2.894694 2.78379,-2.894694 1.24921,0 1.96637,1.243701 1.96637,3.410103 0,1.155945 -0.13247,1.72233 -0.60794,2.599161 -1.17841,2.173173 -5.23124,4.837061 -9.27896,6.098984 -2.1536,0.671411 -6.5912,0.805031 -8.58269,0.258435 z"
       style="fill:#cccccc;fill-opacity:1;fill-rule:evenodd;stroke:none" />
    <path
       inkscape:connector-curvature="0"
       id="path4129"
       d="m 173.62425,42.553481 c -2.96392,-0.690816 -6.40041,-2.894376 -8.51265,-5.458511 -1.65282,-2.00643 -2.31099,-3.353027 -2.73763,-5.60104 -0.47345,-2.494634 -1.37839,-4.061012 -3.30105,-5.71385 -3.45528,-2.970365 -7.20432,-3.531042 -11.31463,-1.692124 -2.30119,1.029537 -4.02586,2.61469 -5.36375,4.929845 -1.20165,2.079388 -2.2077,3.024542 -3.21941,3.024542 -1.24458,0 -2.00921,-1.748188 -1.48215,-3.388619 0.44012,-1.369832 2.22702,-3.70979 4.22174,-5.52843 3.45153,-3.146837 4.70168,-3.623779 9.53161,-3.636372 5.48612,-0.01431 7.92865,0.780589 10.96314,3.567834 2.09073,1.920384 3.23259,3.710915 5.04085,7.904493 2.41604,5.603089 5.09989,7.901236 9.17912,7.859977 4.29082,-0.0434 8.84967,-2.689585 10.12586,-5.877559 0.26986,-0.674109 0.66944,-1.423242 0.88796,-1.66474 1.17328,-1.296646 2.71716,-1.556833 3.72765,-0.628214 0.55204,0.507317 0.59556,0.678822 0.51298,2.021854 -0.12215,1.986701 -1.31251,4.204978 -3.18139,5.928613 -1.76496,1.627796 -2.71248,2.126431 -6.10721,3.213896 -2.46477,0.789563 -3.0772,0.901404 -5.26002,0.960581 -1.52872,0.04144 -2.94336,-0.04325 -3.71102,-0.222176 l 0,0 z"
       style="fill:#cccccc;fill-opacity:1;fill-rule:evenodd;stroke:none" />
    <path
       inkscape:connector-curvature="0"
       id="path4131"
       d="m 137.10216,42.529313 c -2.03112,-0.376303 -5.10042,-1.424925 -6.94418,-2.372471 -2.67585,-1.375183 -3.96889,-3.259313 -5.64298,-8.222608 -2.16394,-6.415487 -4.27634,-8.544772 -8.83574,-8.906367 -2.7057,-0.214582 -5.92344,0.986746 -8.54853,3.191548 -1.51923,1.275996 -2.14207,2.147716 -2.36845,3.314891 -0.33215,1.712524 -2.51277,2.863308 -4.19888,2.215885 -0.691542,-0.265533 -0.87831,-0.459221 -0.906479,-0.940073 -0.08015,-1.367405 0.09996,-1.996061 1.123999,-3.925199 1.50028,-2.826188 3.39559,-4.575714 6.44049,-5.945126 2.96421,-1.333117 4.73976,-1.735891 7.64665,-1.73459 3.71738,0.0017 6.76371,1.113677 9.55368,3.487403 2.62463,2.233077 3.80359,4.114333 5.35912,8.551578 1.13579,3.239904 1.41151,3.772637 2.55411,4.93489 1.49296,1.518642 4.38695,2.583916 7.02987,2.587686 3.80551,0.0054 7.14551,-2.033615 9.12725,-5.572119 0.45486,-0.812145 1.01627,-1.685044 1.2476,-1.939775 0.64072,-0.705561 1.81033,-1.158492 2.99158,-1.158492 0.86393,0 1.13473,0.09777 1.43423,0.517839 0.33431,0.468876 0.33488,0.653913 0.006,1.956965 -0.6358,2.519422 -2.34067,5.201992 -4.4318,6.973357 -3.17968,2.693457 -8.02857,3.838679 -12.63759,2.984778 z"
       style="fill:#cccccc;fill-opacity:1;fill-rule:evenodd;stroke:none" />
    <path
       inkscape:connector-curvature="0"
       id="path4133"
       d="m 97.638907,42.555668 c -2.961713,-0.690967 -6.184245,-2.699682 -8.246857,-5.140536 -1.96747,-2.328267 -2.712298,-3.879942 -3.082493,-6.421654 -0.296194,-2.033617 -1.130156,-3.587367 -2.724638,-5.076269 -2.36889,-2.212014 -5.883141,-3.291148 -8.999401,-2.763476 -3.623727,0.613601 -6.344476,2.694629 -7.330891,5.607213 -0.241362,0.71267 -0.662637,1.584587 -0.936158,1.937595 -0.933341,1.204559 -2.910446,1.697885 -3.99831,0.997654 -0.838174,-0.539521 -1.028171,-1.262738 -0.715461,-2.72343 0.822095,-3.840079 6.157035,-7.89769 12.32439,-9.373592 2.009912,-0.480989 5.532714,-0.444574 7.224457,0.07468 1.935898,0.594194 3.778075,1.680276 5.575816,3.287304 2.593748,2.318605 3.903118,4.390221 5.063388,8.011033 0.699632,2.183338 1.881689,3.952949 3.771244,5.645816 2.058224,1.843976 3.399902,2.448198 5.440207,2.449988 1.48627,0.0013 1.87716,-0.096 3.64686,-0.907805 2.73679,-1.255442 4.58754,-2.716799 5.8705,-4.635361 1.30707,-1.954616 2.55896,-3.125757 3.55651,-3.327103 0.65457,-0.132121 0.84621,-0.06724 1.33093,0.450632 0.50079,0.535028 0.55606,0.770994 0.47798,2.040867 -0.12704,2.066056 -1.21143,3.997185 -3.35223,5.969842 -1.93526,1.783254 -2.34573,1.999865 -5.99802,3.165265 -2.37952,0.759276 -3.0416,0.879559 -5.19735,0.94421 -1.543767,0.0463 -2.93185,-0.03355 -3.700473,-0.212871 l 0,0 z"
       style="fill:#cccccc;fill-opacity:1;fill-rule:evenodd;stroke:none" />
    <path
       inkscape:connector-curvature="0"
       id="path4135"
       d="m 61.106255,42.525479 c -3.766233,-0.7072 -6.652199,-2.217296 -9.154147,-4.789956 -1.592837,-1.637857 -2.698936,-3.739932 -3.450159,-6.55682 -1.213717,-4.551145 -3.440474,-6.966148 -7.267583,-7.881977 -4.982045,-1.192208 -9.919879,1.110262 -12.305196,5.7378 -1.176399,2.282225 -2.017365,3.007817 -3.486094,3.007817 -1.554085,0 -2.06994,-0.559927 -1.859004,-2.01786 0.248193,-1.715506 1.332903,-4.056942 2.556305,-5.518041 5.329717,-6.365181 17.783315,-6.622549 23.956417,-0.495087 1.4784,1.467476 2.557414,3.409454 3.137998,5.647724 1.512915,5.832463 4.559411,8.790177 9.314602,9.043148 4.772305,0.253881 9.256381,-2.213394 10.910606,-6.003354 0.52979,-1.213777 0.902529,-1.736302 1.503828,-2.108134 0.880006,-0.544173 2.557813,-0.674005 3.035627,-0.234903 0.648889,0.596316 0.111557,3.121172 -1.141161,5.362226 -2.087242,3.73395 -5.452704,6.020292 -10.052226,6.829026 -2.094446,0.368266 -3.655026,0.36235 -5.699813,-0.0216 l 0,-9e-6 z"
       style="fill:#cccccc;fill-opacity:1;fill-rule:evenodd;stroke:none" />
    <path
       inkscape:connector-curvature="0"
       id="path4137"
       d="m 22.698819,42.66503 c -5.030457,-1.526331 -9.595864,-5.838546 -10.664494,-10.073069 -0.334572,-1.325754 -0.334497,-1.507494 7.97e-4,-1.977748 0.295347,-0.414242 0.572881,-0.517839 1.387248,-0.517839 1.578703,0 2.615686,0.8302 4.074256,3.261812 1.894665,3.158648 3.643134,4.522008 6.628467,5.168492 4.481209,0.970421 10.310977,-1.827683 11.840694,-5.683154 0.568294,-1.432335 1.694024,-2.630096 2.62577,-2.793779 0.79926,-0.140411 1.909286,0.376448 2.239694,1.042872 0.474885,0.957805 0.323068,2.443938 -0.360136,3.525355 -1.613354,2.553729 -4.712326,5.522889 -7.191364,6.890129 -0.963779,0.531543 -1.838923,0.791619 -3.497985,1.039538 -3.677274,0.549506 -5.556159,0.580645 -7.082947,0.117391 l 0,0 z"
       style="fill:#cccccc;fill-opacity:1;fill-rule:evenodd;stroke:none" />
    <g
       transform="translate(417.60305,-68.250911)"
       id="g4340">
      <path
         inkscape:connector-curvature="0"
         style="fill:#c4b510"
         d="m -319.375,135.5 c -1.46624,0.13015 -2.91885,0.31904 -4.375,0.53125 -2.92276,5.37756 -1.87875,1.52472 -5.28125,7.125 -0.91409,1.50453 -1.65789,3.0974 -2.34375,4.71875 -2.38515,5.63838 -3.8353,10.4079 -5.78125,16.21875 -1.88751,5.39297 -2.95165,11.03725 -5.09375,16.34375 -0.35844,0.88794 -0.80423,1.73056 -1.21875,2.59375 -0.18454,0.38429 -0.51226,0.73292 -0.5625,1.15625 -0.0244,0.20535 0.33679,-0.24799 0.5,-0.375 -1.1825,5.33415 -2.70679,10.5891 -4.5,15.75 -1.34453,3.86957 -2.12969,6.14246 -4.40625,9.5625 -0.71345,1.07181 -1.64237,1.9814 -2.46875,2.96875 -0.7951,0.58406 -1.64002,1.05464 -2.46875,1.46875 0.10706,6.05669 0.23894,12.09834 0.21875,18.15625 -0.0799,6.05883 0.2171,8.42508 -4.71875,11.03125 -0.16873,0.18464 -0.27719,0.30322 0.0312,0.3125 -0.31827,1.95869 -0.29621,3.97538 -0.59375,5.9375 -0.13969,0.92117 -0.8072,4.10424 -0.9375,5.46875 -0.0534,0.5587 0.0571,1.64739 0.0937,2.1875 -0.007,4.31714 -0.62513,8.57078 -1.34375,12.8125 2.01858,6.20458 2.77144,8.5644 3.125,9.6875 -0.0111,-0.0312 0.20715,0.61903 0.21875,0.65625 0.0111,0.0358 0.11601,0.37714 0.125,0.40625 0.10372,0.32094 0.0801,0.28539 0.75,2.3125 2.21418,6.04002 2.45596,13.39883 7.25,18.1875 3.44346,5.82567 1.56157,1.97686 3.03125,7.0625 0.0697,0.12706 0.14807,0.24847 0.21875,0.375 -0.0342,-0.23696 -0.052,-0.43014 0.0312,-0.3125 0.41938,0.5928 1.20537,1.47221 1,2.09375 0.54319,0.94956 1.064,1.91797 1.53125,2.90625 0.29029,0.61399 0.414,1.28112 0.59375,1.9375 2.99177,-0.26231 6.63319,0.34262 10.84375,2.15625 4.17636,1.7989 4.00061,1.63192 7.75,3.5625 0.80511,0.41456 1.58493,0.93107 2.40625,1.3125 0.47566,0.22089 0.97867,0.31326 1.46875,0.5 2.3071,0.87906 4.61393,1.83308 6.90625,2.75 3.32917,0.53722 6.50256,1.326 9.6875,2.46875 4.46527,1.60213 1.67026,0.90209 4.125,1.46875 2.04323,0.19072 3.9006,1.36107 5.90625,1.6875 0.0802,0.013 0.0756,-0.17711 0.15625,-0.1875 0.44278,-0.0571 0.89731,-0.027 1.34375,-0.0312 5.07194,0.62934 2.41506,0.22797 4.78125,0.71875 0.17921,0.0246 0.3913,0.0512 0.5,0.0625 0.0772,0.0292 0.29975,0.10955 0.21875,0.0937 -0.40796,-0.0797 -0.45775,-0.10212 -0.71875,-0.15625 -0.27372,-0.0376 -0.55153,-0.0567 -0.65625,-0.0625 0.0113,0.004 0.005,0.0239 0.0312,0.0312 3.55446,0.9774 4.57603,1.08885 5,1.125 -0.005,-0.007 -8.1e-4,-0.021 0.0625,0 0.17683,0.0134 0.32206,0.0692 0.53125,0.15625 0.41263,0.1308 0.89067,0.3034 1.40625,0.4375 0.0904,0.0235 0.13185,-0.15314 0.21875,-0.1875 0.0611,-0.0242 0.15511,-0.005 0.1875,-0.0625 0.0118,-0.0208 0.001,-0.0314 -0.0312,-0.0312 1.49961,-0.0974 2.99646,-0.13911 4.5,-0.15625 0.23796,-0.13484 0.55492,-0.30855 0.78125,-0.4375 1.94172,-1.01733 3.89961,-1.99195 5.8125,-3.0625 5.28924,-2.96011 9.78086,-7.02771 15.34375,-9.53125 1.91948,-0.86385 3.96284,-1.45854 5.9375,-2.1875 6.12217,-1.47619 11.76856,-4.17829 17.34375,-7.03125 4.23284,-2.16605 4.98884,-2.54347 6.375,-3.375 0.81671,-1.60576 1.63369,-3.21606 2.78125,-4.625 1.35338,-1.96242 2.78126,-4.10366 4.21875,-5.96875 0.23783,-0.30857 0.57039,-0.50728 0.8125,-0.8125 0.36088,-0.45498 0.89877,-2.00934 1,-1.4375 0.0899,0.50788 -0.66749,1.57792 -0.90625,1.90625 1.44484,-1.6172 2.6832,-3.40723 3.96875,-5.15625 -0.0811,0.0726 -0.16801,0.12981 -0.25,0.15625 -0.0959,0.0309 -0.0335,-0.2354 0.0312,-0.3125 0.23482,-0.27946 0.53958,-0.5063 0.8125,-0.75 0.27979,-0.54453 0.48985,-1.07104 0.5,-1.09375 2.23044,-4.99 0.47417,-1.68601 2.8125,-5.8125 0.52779,-0.72385 0.75546,-1.83258 1.5,-2.25 0.008,-6.67696 0.0296,-13.35435 0,-20.03125 -0.0221,-2.72 -0.25001,-5.51402 0.15625,-8.21875 -0.0195,-0.10297 -0.0104,-0.0985 -0.0312,-0.21875 -0.16956,-0.97887 -0.3739,-1.95659 -0.53125,-2.9375 -1.06518,-6.64004 1.0304,4.64744 -0.90625,-5.40625 -0.10207,-0.59374 -0.17079,-1.18404 -0.25,-1.78125 0.70062,0.12716 0.19026,0.0931 -0.46875,-1.4375 -0.36412,-0.84568 -0.76364,-1.70299 -1.09375,-2.5625 -0.73443,-1.91222 -0.95474,-3.90061 -1.8125,-5.78125 -0.2136,-0.99719 -0.47505,-1.99641 -0.65625,-3 -0.11031,-0.61099 -0.24208,-1.22332 -0.21875,-1.84375 0.004,-0.1048 0.34681,0.0366 0.3125,-0.0625 -0.39714,-1.14727 -1.06777,-2.20924 -1.5,-3.34375 -1.59264,-4.18037 -1.45915,-4.17322 -2.28125,-8.0625 -0.16131,-0.75277 -0.26205,-1.50842 -0.46875,-2.25 -0.49367,-1.77109 -1.29645,-3.43693 -1.65625,-5.25 -0.33331,-1.21729 -0.53525,-2.47198 -0.875,-3.6875 -0.28357,-1.01452 -0.6295,-2.02387 -0.9375,-3.03125 -1.07576,-4.51012 -2.26642,-9.21058 -2.84375,-13.78125 -1.06137,-8.40275 -0.89893,-14.30002 -0.96875,-22.78125 -0.0316,-3.84321 -0.0957,-7.68791 -0.0937,-11.53125 7.2e-4,-1.1239 0.0204,-2.25115 0.0312,-3.375 -1.04708,-1.377 -2.06065,-2.78083 -3.03125,-4.21875 -1.27111,-0.14599 -2.69458,-0.4387 -4.5,-0.96875 -1.92318,-0.56462 -3.61841,-1.76114 -5.34375,-2.78125 -0.26627,-0.15743 -0.73663,-0.44526 -1.15625,-0.71875 -0.78,-0.2557 -1.53872,-0.50736 -2.25,-0.78125 -0.4958,0.14706 -1.05923,0.2936 -1.34375,0.375 -4.95878,1.41865 -10.04786,2.71933 -15.21875,3 -1.40609,0.15788 -2.80796,0.36053 -4.21875,0.46875 -1.03179,0.0791 -3.63491,-0.009 -3.65625,-0.0625 -0.0119,-0.0299 0.0305,-0.0718 0.0625,-0.0937 -0.61162,0.12026 -1.23368,0.2466 -1.84375,0.375 -4.30644,-0.80541 -6.59309,-0.30959 -9.375,-2.59375 -0.64007,-0.34839 -1.29059,-0.69253 -1.875,-1.125 -9.3e-4,-6.9e-4 0.0872,0.0287 0.0937,0.0312 0.038,-0.0394 0.10484,-0.041 0.15625,-0.0625 -2.42537,-0.17291 -3.71385,-1.00886 -4.03125,-3.15625 -1.24046,0.57601 -2.45192,1.20363 -3.71875,1.71875 -0.92596,0.37652 -1.89405,0.6257 -2.84375,0.9375 -3.39245,1.11377 -6.55477,2.13265 -10.125,2.625 -0.52246,0.072 -1.06634,-0.001 -1.59375,0 -3.01979,-0.0166 -6.04302,-0.0479 -9.0625,-0.0937 -0.31149,-0.005 -0.62593,-0.0286 -0.9375,-0.0312 -0.72559,0.45923 -1.36401,0.79428 -1.625,0.1875 -1.32605,-3.08291 -2.52018,-5.56284 -3.59375,-7.8125 z m 103.3125,154.3125 c -0.10689,0.20803 -0.2179,0.41882 -0.34375,0.59375 0.19875,-0.26808 0.39101,-0.54772 0.59375,-0.8125 -0.0808,0.0772 -0.16643,0.14412 -0.25,0.21875 z m -134.0625,17.96875 c 0.1234,0.427 0.22946,0.80896 0.40625,1.375 0.0421,0.13491 -0.0478,-0.18395 -0.0937,-0.40625 -0.09,-0.38099 -0.19308,-0.73618 -0.3125,-0.96875 z m 106.5,-167.25 c -0.2564,0.0785 -0.42491,0.11813 -0.65625,0.1875 0.46902,0.23339 0.83954,0.35832 1.53125,0.625 -0.44648,-0.31268 -0.71179,-0.55709 -0.46875,-0.5625 -0.13304,-0.0873 -0.27258,-0.16377 -0.40625,-0.25 z m -36.625,0.59375 c -0.15745,0.004 -0.3184,0.0306 -0.46875,0.0312 0.19949,0.0279 0.37005,0.0366 0.46875,-0.0312 z m -88.40625,104.40625 c -0.55233,0.19834 -1.17347,0.38242 -1.78125,0.59375 0.14625,0.0327 0.29189,0.0589 0.4375,0.0937 l 1.34375,-0.6875 z M -211.0625,252.5 c -0.0823,0.65252 -0.17525,1.45121 0.0312,0.78125 0.27587,0.42431 0.15792,0.18437 -0.0312,-0.78125 z m 4.9375,26.5625 c -1.1343,0.22815 -2.23448,0.53545 -3.3125,0.96875 -0.11424,0.0459 -0.20619,0.11054 -0.3125,0.15625 1.21724,-0.31818 2.44824,-0.58664 3.6875,-0.8125 -0.0168,-0.10427 -0.0461,-0.20871 -0.0625,-0.3125 z m -5.125,1.90625 c -2.00568,1.37729 -0.87756,2.65109 0,3.78125 1.6e-4,-1.26039 -0.001,-2.52086 0,-3.78125 z"
         id="path4170" />
      <path
         inkscape:connector-curvature="0"
         style="fill:#9d980a"
         d="m -319.375,135.5 c -1.46624,0.13015 -2.91885,0.31904 -4.375,0.53125 -2.92276,5.37756 -1.87875,1.52472 -5.28125,7.125 -0.91409,1.50453 -1.65789,3.0974 -2.34375,4.71875 -2.38515,5.63838 -3.8353,10.4079 -5.78125,16.21875 -1.88751,5.39297 -2.95165,11.03725 -5.09375,16.34375 -0.35844,0.88794 -0.80423,1.73056 -1.21875,2.59375 -0.18454,0.38429 -0.51226,0.73292 -0.5625,1.15625 -0.0244,0.20535 0.33679,-0.24799 0.5,-0.375 -1.1825,5.33415 -2.70679,10.5891 -4.5,15.75 -1.34453,3.86957 -2.12969,6.14246 -4.40625,9.5625 -0.71345,1.07181 -1.64237,1.9814 -2.46875,2.96875 -0.7951,0.58406 -1.64002,1.05464 -2.46875,1.46875 0.10706,6.05669 0.23894,12.09834 0.21875,18.15625 -0.0799,6.05883 0.2171,8.42508 -4.71875,11.03125 -0.16873,0.18464 -0.27719,0.30322 0.0312,0.3125 -0.31827,1.95869 -0.29621,3.97538 -0.59375,5.9375 -0.13969,0.92117 -0.8072,4.10424 -0.9375,5.46875 -0.0534,0.5587 0.0571,1.64739 0.0937,2.1875 -0.007,4.31714 -0.62513,8.57078 -1.34375,12.8125 2.01858,6.20458 2.77144,8.5644 3.125,9.6875 -0.0111,-0.0312 0.20715,0.61903 0.21875,0.65625 0.0111,0.0358 0.11601,0.37714 0.125,0.40625 0.10372,0.32094 0.0801,0.28539 0.75,2.3125 2.21418,6.04002 2.45596,13.39883 7.25,18.1875 3.44346,5.82567 1.56157,1.97686 3.03125,7.0625 0.0697,0.12706 0.14807,0.24847 0.21875,0.375 -0.0342,-0.23696 -0.052,-0.43014 0.0312,-0.3125 0.41938,0.5928 1.20537,1.47221 1,2.09375 0.54319,0.94956 1.064,1.91797 1.53125,2.90625 0.29029,0.61399 0.414,1.28112 0.59375,1.9375 2.99177,-0.26231 6.63319,0.34262 10.84375,2.15625 4.17636,1.7989 4.00061,1.63192 7.75,3.5625 0.80511,0.41456 1.58493,0.93107 2.40625,1.3125 0.47566,0.22089 0.97867,0.31326 1.46875,0.5 2.3071,0.87906 4.61393,1.83308 6.90625,2.75 3.32917,0.53722 6.50256,1.326 9.6875,2.46875 4.46527,1.60213 1.67026,0.90209 4.125,1.46875 2.04323,0.19072 3.9006,1.36107 5.90625,1.6875 0.0802,0.013 0.0756,-0.17711 0.15625,-0.1875 0.44278,-0.0571 0.89731,-0.027 1.34375,-0.0312 5.07194,0.62934 2.41506,0.22797 4.78125,0.71875 0.17921,0.0246 0.3913,0.0512 0.5,0.0625 0.0772,0.0292 0.29975,0.10955 0.21875,0.0937 -0.40796,-0.0797 -0.45775,-0.10212 -0.71875,-0.15625 -0.27372,-0.0376 -0.55153,-0.0567 -0.65625,-0.0625 0.0113,0.004 0.005,0.0239 0.0312,0.0312 3.55446,0.9774 4.57603,1.08885 5,1.125 -0.005,-0.007 -8.1e-4,-0.021 0.0625,0 0.17683,0.0134 0.32206,0.0692 0.53125,0.15625 0.41263,0.1308 0.89067,0.3034 1.40625,0.4375 0.0904,0.0235 0.13185,-0.15314 0.21875,-0.1875 0.0611,-0.0242 0.15511,-0.005 0.1875,-0.0625 0.0118,-0.0208 0.001,-0.0314 -0.0312,-0.0312 1.49961,-0.0974 2.99646,-0.13911 4.5,-0.15625 0.23796,-0.13484 0.55492,-0.30855 0.78125,-0.4375 1.94172,-1.01733 3.89961,-1.99195 5.8125,-3.0625 5.28924,-2.96011 9.78086,-7.02771 15.34375,-9.53125 1.91948,-0.86385 3.96284,-1.45854 5.9375,-2.1875 6.12217,-1.47619 11.76856,-4.17829 17.34375,-7.03125 4.23284,-2.16605 4.98884,-2.54347 6.375,-3.375 0.81671,-1.60576 1.63369,-3.21606 2.78125,-4.625 1.35338,-1.96242 2.78126,-4.10366 4.21875,-5.96875 0.23783,-0.30857 0.57039,-0.50728 0.8125,-0.8125 0.36088,-0.45498 0.89877,-2.00934 1,-1.4375 0.0899,0.50788 -0.66749,1.57792 -0.90625,1.90625 1.44484,-1.6172 2.6832,-3.40723 3.96875,-5.15625 -0.0811,0.0726 -0.16801,0.12981 -0.25,0.15625 -0.0959,0.0309 -0.0335,-0.2354 0.0312,-0.3125 0.23482,-0.27946 0.53958,-0.5063 0.8125,-0.75 0.27979,-0.54453 0.48985,-1.07104 0.5,-1.09375 2.23044,-4.99 0.47417,-1.68601 2.8125,-5.8125 0.52779,-0.72385 0.75546,-1.83258 1.5,-2.25 0.008,-6.67696 0.0296,-13.35435 0,-20.03125 -0.0221,-2.72 -0.25001,-5.51402 0.15625,-8.21875 -0.0195,-0.10297 -0.0104,-0.0985 -0.0312,-0.21875 -0.16956,-0.97887 -0.3739,-1.95659 -0.53125,-2.9375 -1.06518,-6.64004 1.0304,4.64744 -0.90625,-5.40625 -0.10207,-0.59374 -0.17079,-1.18404 -0.25,-1.78125 0.70062,0.12716 0.19026,0.0931 -0.46875,-1.4375 -0.36412,-0.84568 -0.76364,-1.70299 -1.09375,-2.5625 -0.73443,-1.91222 -0.95474,-3.90061 -1.8125,-5.78125 -0.2136,-0.99719 -0.47505,-1.99641 -0.65625,-3 -0.11031,-0.61099 -0.24208,-1.22332 -0.21875,-1.84375 0.004,-0.1048 0.34681,0.0366 0.3125,-0.0625 -0.39714,-1.14727 -1.06777,-2.20924 -1.5,-3.34375 -1.59264,-4.18037 -1.45915,-4.17322 -2.28125,-8.0625 -0.16131,-0.75277 -0.26205,-1.50842 -0.46875,-2.25 -0.49367,-1.77109 -1.29645,-3.43693 -1.65625,-5.25 -0.33331,-1.21729 -0.53525,-2.47198 -0.875,-3.6875 -0.28357,-1.01452 -0.6295,-2.02387 -0.9375,-3.03125 -1.07576,-4.51012 -2.26642,-9.21058 -2.84375,-13.78125 -1.06137,-8.40275 -0.89893,-14.30002 -0.96875,-22.78125 -0.0316,-3.84321 -0.0957,-7.68791 -0.0937,-11.53125 7.2e-4,-1.1239 0.0204,-2.25115 0.0312,-3.375 -1.04708,-1.377 -2.06065,-2.78083 -3.03125,-4.21875 -1.27111,-0.14599 -2.69458,-0.4387 -4.5,-0.96875 -1.92318,-0.56462 -3.61841,-1.76114 -5.34375,-2.78125 -0.26627,-0.15743 -0.73663,-0.44526 -1.15625,-0.71875 -0.78,-0.2557 -1.53872,-0.50736 -2.25,-0.78125 -0.4958,0.14706 -1.05923,0.2936 -1.34375,0.375 -4.95878,1.41865 -10.04786,2.71933 -15.21875,3 -1.40609,0.15788 -2.80796,0.36053 -4.21875,0.46875 -1.03179,0.0791 -3.63491,-0.009 -3.65625,-0.0625 -0.0119,-0.0299 0.0305,-0.0718 0.0625,-0.0937 -0.61162,0.12026 -1.23368,0.2466 -1.84375,0.375 -4.30644,-0.80541 -6.59309,-0.30959 -9.375,-2.59375 -0.64007,-0.34839 -1.29059,-0.69253 -1.875,-1.125 -9.3e-4,-6.9e-4 0.0872,0.0287 0.0937,0.0312 0.038,-0.0394 0.10484,-0.041 0.15625,-0.0625 -2.42537,-0.17291 -3.71385,-1.00886 -4.03125,-3.15625 -1.24046,0.57601 -2.45192,1.20363 -3.71875,1.71875 -0.92596,0.37652 -1.89405,0.6257 -2.84375,0.9375 -3.39245,1.11377 -6.55477,2.13265 -10.125,2.625 -0.52246,0.072 -1.06634,-0.001 -1.59375,0 -3.01979,-0.0166 -6.04302,-0.0479 -9.0625,-0.0937 -0.31149,-0.005 -0.62593,-0.0286 -0.9375,-0.0312 -0.72559,0.45923 -1.36401,0.79428 -1.625,0.1875 -1.32605,-3.08291 -2.52018,-5.56284 -3.59375,-7.8125 z m 103.3125,154.3125 c -0.10689,0.20803 -0.2179,0.41882 -0.34375,0.59375 0.19875,-0.26808 0.39101,-0.54772 0.59375,-0.8125 -0.0808,0.0772 -0.16643,0.14412 -0.25,0.21875 z m -134.0625,17.96875 c 0.1234,0.427 0.22946,0.80896 0.40625,1.375 0.0421,0.13491 -0.0478,-0.18395 -0.0937,-0.40625 -0.09,-0.38099 -0.19308,-0.73618 -0.3125,-0.96875 z m 106.5,-167.25 c -0.2564,0.0785 -0.42491,0.11813 -0.65625,0.1875 0.46902,0.23339 0.83954,0.35832 1.53125,0.625 -0.44648,-0.31268 -0.71179,-0.55709 -0.46875,-0.5625 -0.13304,-0.0873 -0.27258,-0.16377 -0.40625,-0.25 z m -36.625,0.59375 c -0.15745,0.004 -0.3184,0.0306 -0.46875,0.0312 0.19949,0.0279 0.37005,0.0366 0.46875,-0.0312 z m -11.46875,0.90625 c 0.1325,-0.0825 0.36758,0.49554 0.84375,1.6875 1.07126,2.68159 0.84351,5.69736 -0.34375,4.5 -0.4125,-0.41601 -0.7224,-2.14791 -0.6875,-3.84375 0.031,-1.5077 0.055,-2.26126 0.1875,-2.34375 z m 18.46875,4.25 c 0.23496,0.0703 0.17976,1.03817 -0.28125,2.875 -0.36139,1.4399 -1.02615,2.625 -1.46875,2.625 -0.4426,0 -0.30239,-1.33974 0.3125,-2.96875 0.66974,-1.77434 1.20254,-2.60159 1.4375,-2.53125 z m -31.34375,6.09375 c 0.3295,-0.094 1.30903,1.6934 2.0625,4.15625 0.41545,1.35796 0.26921,2.25 -0.375,2.25 -0.58707,0 -1.08675,-0.5625 -1.09375,-1.25 -0.008,-0.6875 -0.25717,-2.375 -0.5625,-3.75 -0.20816,-0.93741 -0.18102,-1.36353 -0.0312,-1.40625 z m 28,0.75 c 0.27211,-0.0721 0.68377,0.38237 0.96875,1.125 0.67618,1.76211 0.0798,2.06421 -0.90625,0.46875 -0.36253,-0.58659 -0.41838,-1.26912 -0.15625,-1.53125 0.0328,-0.0328 0.0549,-0.0522 0.0937,-0.0625 z m -41.25,2.6875 c 0.12125,-0.0434 0.65175,0.42761 1.71875,1.375 1.18003,1.04774 2.15625,2.06024 2.15625,2.25 0,1.26057 -2.15023,-0.0487 -3.125,-1.90625 -0.58718,-1.11897 -0.87125,-1.67539 -0.75,-1.71875 z m 55.46875,0.96875 c 0.19995,0 -0.15476,1.125 -0.78125,2.5 -0.6265,1.375 -1.5256,2.5 -2,2.5 -0.47439,0 -0.11969,-1.125 0.78125,-2.5 0.90093,-1.375 1.80005,-2.5 2,-2.5 z m -27.125,1.5 c 0.0577,-0.005 0.11902,0.0807 0.1875,0.25 0.27387,0.67703 0.28479,2.02703 0.0312,3 -0.25354,0.97297 -0.4796,0.4 -0.5,-1.25 -0.0153,-1.2375 0.1083,-1.98439 0.28125,-2 z m 22.28125,5.875 c 0.2639,0.0497 0.48059,0.20385 0.625,0.4375 0.28881,0.46731 -0.13669,0.84375 -0.9375,0.84375 -1.68617,0 -1.80838,-0.28513 -0.5,-1.09375 0.256,-0.15822 0.5486,-0.23722 0.8125,-0.1875 z m -25.1875,2.40625 c 0.0702,0.25818 0.12266,2.49509 0.21875,6.96875 0.1153,5.36754 0.63848,9.25 1.21875,9.25 0.55,0 0.9401,-0.3375 0.875,-0.75 -0.0651,-0.4125 -0.0423,-1.425 0.0312,-2.25 0.11888,-1.33333 0.23511,-1.33333 1.1875,0 0.86734,1.21427 0.97711,1.10459 0.59375,-0.65625 -0.34194,-1.57062 -0.0767,-2.04542 0.9375,-1.65625 0.77249,0.29643 1.27224,1.22506 1.125,2.0625 -0.14724,0.83745 0.5375,1.66119 1.5,1.8125 0.99802,0.15689 1.75,-0.38011 1.75,-1.21875 0,-0.80882 0.44103,-1.18921 1,-0.84375 0.55896,0.34547 0.85125,0.938 0.625,1.3125 -0.22624,0.37449 0.26402,1.32621 1.09375,2.09375 1.31403,1.21552 1.42909,1.12081 0.875,-0.625 -0.40613,-1.27959 -0.0453,-2.48685 1.03125,-3.375 1.52171,-1.25539 1.58091,-1.19716 0.59375,0.65625 -0.60167,1.12964 -0.71633,2.63977 -0.28125,3.34375 0.61259,0.99118 0.90435,0.914 1.375,-0.3125 0.33428,-0.87112 1.075,-1.59375 1.625,-1.59375 0.55,0 0.68128,0.78933 0.3125,1.75 -0.63817,1.66305 -0.53813,1.66305 2,0 3.18575,-2.08738 4.95603,-2.3369 2.1875,-0.3125 -1.06675,0.78003 -1.6171,1.72666 -1.21875,2.125 0.39834,0.39834 1.41171,0.16447 2.25,-0.53125 2.01208,-1.66988 1.92014,-0.60117 -0.21875,2.75 -1.69056,2.64874 -1.68573,2.68224 0.1875,1.21875 1.7473,-1.3651 1.88619,-1.33243 1.28125,0.28125 -0.55971,1.49299 -0.39095,1.61149 1.21875,0.75 2.58129,-1.38146 3.71914,-1.28164 2.25,0.1875 -1.86322,1.86318 -1.39862,2.96241 0.75,1.8125 3.20106,-1.71315 3.54595,-1.1788 1,1.53125 l -2.40625,2.5625 2.875,-1.09375 c 3.87238,-1.47228 4.4539,-0.58206 0.9375,1.4375 l -2.84375,1.625 3,-0.5625 3,-0.59375 -2.5,2.125 -2.5,2.09375 3,-0.59375 3,-0.59375 -2.4375,2.09375 -2.46875,2.0625 2.96875,-0.625 2.9375,-0.65625 -2.5,2.09375 -2.5,2.09375 2.8125,-1 c 4.09897,-1.48017 4.50027,-1.23323 1.6875,1.0625 -2.41574,1.97168 -2.42417,2.01508 -0.25,1.40625 3.13241,-0.87718 2.80897,-0.0685 -1,2.5 -1.7875,1.20535 -2.575,1.96108 -1.75,1.6875 0.825,-0.27357 2.4,-0.8114 3.5,-1.1875 1.48904,-0.50911 1.23356,0.0265 -1,2.09375 -1.65,1.5271 -2.325,2.55329 -1.5,2.25 0.825,-0.3033 2.625,-0.88543 4,-1.28125 2.41725,-0.69585 2.4007,-0.62423 -0.5,1.875 l -3,2.5625 2.8125,-1 c 3.48437,-1.2403 3.6875,-1.23843 3.6875,0 0,0.55 -0.61734,1 -1.375,1 -0.75765,0 -1.89599,0.58471 -2.5,1.3125 -0.87945,1.05967 -0.42699,1.26897 2.15625,1 3.00849,-0.31326 3.06721,-0.2432 0.96875,0.84375 -3.12184,1.61704 -2.81842,3.02105 0.5,2.3125 2.50288,-0.53441 2.59274,-0.48751 1,0.8125 -2.13129,1.73959 -2.17675,2.167 -0.28125,4.0625 1.23605,1.23605 1.27826,1.97835 0.25,4.40625 -0.68044,1.60663 -1.78125,2.73111 -2.46875,2.5 -0.6875,-0.23111 -1.25,0.0437 -1.25,0.59375 0,0.55 0.5625,1.22103 1.25,1.5 0.80981,0.32859 0.89785,0.80854 0.25,1.34375 -0.55,0.45437 -1.12908,1.9375 -1.28125,3.3125 -0.37979,3.43174 -3.70775,8.05565 -15.59375,21.59375 -3.77851,4.30371 -5.625,5.43499 -5.625,3.4375 0,-0.54149 2.88232,-7.49813 6.40625,-15.4375 3.52392,-7.93937 6.69304,-15.36718 7.0625,-16.53125 0.59511,-1.87503 -6.23015,-27.64484 -7.09375,-26.78125 -0.17138,0.17139 0.27432,5.48256 1,11.78125 l 1.34375,11.4375 -8.59375,17.25 c -4.72645,9.48958 -9.06875,17.14693 -9.625,17 -0.55625,-0.14694 -4.50423,-7.23235 -8.78125,-15.75 l -7.78125,-15.5 0.5,-9.5 c 0.48873,-9.47825 0.4931,-9.46871 -0.90625,-4.5625 -0.77141,2.7046 -1.96789,7.91679 -2.625,11.59375 l -1.1875,6.6875 6.75,12.6875 c 3.7075,6.98873 6.54455,12.89294 6.3125,13.125 -0.23206,0.23205 -5.20189,-3.29324 -11.0625,-7.84375 -11.58697,-8.99679 -17.07905,-15.66864 -20.59375,-25.0625 l -2.09375,-5.625 2.90625,0 c 4.08565,0 4.7178,-1.70096 0.9375,-2.53125 -2.02296,-0.44432 -3.39992,-0.26869 -3.875,0.5 -0.52041,0.84206 -0.90636,0.69001 -1.375,-0.53125 -0.36449,-0.94984 -0.4442,-1.96206 -0.15625,-2.25 0.28795,-0.28795 0.53125,-0.10188 0.53125,0.40625 0,0.50817 2.025,0.75935 4.5,0.5625 5.32418,-0.42345 6.07691,-2.15625 0.9375,-2.15625 -4.74358,0 -3.45781,-1.95646 1.375,-2.09375 l 3.6875,-0.125 -4,-1.21875 -4,-1.25 4,-1.03125 c 2.2,-0.58066 3.1,-1.1222 2,-1.1875 -1.1,-0.0653 -2.675,-0.5919 -3.5,-1.15625 -1.14623,-0.78407 -0.67453,-0.98405 2,-0.875 5.48195,0.22353 5.80997,-0.1108 1.5,-1.53125 l -4,-1.3125 3.8125,-0.0937 c 3.86772,-0.10647 4.40124,-2.125 0.5625,-2.125 -3.3142,0 -1.00415,-1.98335 2.4375,-2.09375 l 3.1875,-0.0937 -3.3125,-0.78125 c -4.93276,-1.16823 -5.06721,-2.03125 -0.3125,-2.03125 2.56248,0 3.99978,-0.39359 3.625,-1 -0.33992,-0.55 -1.71996,-1 -3.0625,-1 -1.34254,0 -2.4375,-0.48357 -2.4375,-1.09375 0,-0.6791 1.35769,-0.96885 3.5,-0.71875 4.21753,0.49238 4.39824,0.16919 0.75,-1.40625 l -2.75,-1.1875 3.75,-0.375 c 3.77043,-0.34927 4.3528,-2.21875 0.6875,-2.21875 -1.06754,0 -1.9375,-0.4954 -1.9375,-1.09375 0,-0.7091 1.47982,-0.86719 4.25,-0.46875 l 4.25,0.625 -3,-1.53125 -3,-1.53125 4.5,0.375 4.5,0.40625 -3.3125,-1.40625 c -1.81264,-0.77345 -3.02102,-1.8666 -2.6875,-2.40625 0.39516,-0.6394 1.2791,-0.62216 2.5,0.0312 1.03046,0.55148 2.68884,0.99075 3.6875,0.96875 1.36199,-0.03 1.12528,-0.41217 -0.9375,-1.53125 -1.5125,-0.82054 -2.75,-1.72322 -2.75,-2 0,-0.27679 0.9,-0.0262 2,0.5625 1.1,0.5887 2,0.7481 2,0.34375 0,-0.40435 0.5275,-0.19125 1.1875,0.46875 0.66,0.66 2.081,1.1875 3.15625,1.1875 1.83062,0 1.86222,-0.1001 0.3125,-1.8125 -1.74786,-1.93136 -2.30493,-4.711 -0.75,-3.75 0.50303,0.31089 1.1831,0.003 1.5,-0.6875 0.31694,-0.69093 0.28676,-0.12069 -0.0625,1.25 -0.54086,2.12265 -0.42214,2.3006 0.84375,1.25 0.81744,-0.67841 1.86243,-0.90773 2.3125,-0.5 0.4501,0.40772 0.48939,0.1875 0.0937,-0.5 -0.39564,-0.6875 -0.24586,-1.25 0.3125,-1.25 0.56186,0 1.15275,-3.23756 1.34375,-7.25 0.14605,-3.06809 0.24636,-4.76133 0.3125,-4.96875 z m 3.875,4.0625 c 0.0189,-0.0159 0.042,-0.0118 0.0625,0 0.0547,0.0315 0.12462,0.16563 0.1875,0.40625 0.25152,0.9625 0.25152,2.5375 0,3.5 -0.25153,0.9625 -0.46875,0.175 -0.46875,-1.75 0,-1.26328 0.0864,-2.04528 0.21875,-2.15625 z m -40.9375,0.0937 2.75,1.1875 c 1.5125,0.65336 2.75,1.56953 2.75,2.03125 0,1.14073 -0.13873,1.10743 -3,-1.1875 l -2.5,-2.03125 z m 77.75,0.28125 c 0.16711,-0.0159 0.30085,0.0196 0.375,0.0937 0.2386,0.23861 -0.70159,1.18157 -2.09375,2.09375 -1.39217,0.91221 -2.53125,1.30538 -2.53125,0.875 0,-0.85192 3.0802,-2.95124 4.25,-3.0625 z m -70.625,2.90625 c 0.21521,-0.0285 0.375,0.27565 0.375,0.78125 0,0.67415 0.45,0.93367 1,0.59375 0.55,-0.33992 1,-0.4 1,-0.125 0,0.275 -0.42551,0.77732 -0.9375,1.09375 -1.07595,0.66498 -2.55446,-1.28929 -1.65625,-2.1875 0.0825,-0.0825 0.14701,-0.14676 0.21875,-0.15625 z m 60.21875,3.40625 c 0.10156,-0.0112 0.22692,0.0215 0.34375,0.0937 0.4673,0.28881 0.56644,0.9255 0.25,1.4375 -0.80862,1.30838 -1.125,1.18617 -1.125,-0.5 0,-0.60061 0.22657,-0.99774 0.53125,-1.03125 z m -72.4375,29.75 c 0.18359,-0.009 0.43125,0.18125 0.78125,0.53125 0.93333,0.93333 0.93333,1.47292 0,2.40625 -0.93333,0.93333 -1.1875,0.64792 -1.1875,-1.21875 0,-1.16667 0.10026,-1.70443 0.40625,-1.71875 z m 1,6.1875 c 0.0209,-0.0111 0.0399,-0.008 0.0625,0 0.0603,0.0225 0.11815,0.10938 0.1875,0.28125 0.27741,0.6875 0.27741,1.8125 0,2.5 -0.27741,0.6875 -0.5,0.125 -0.5,-1.25 0,-0.90234 0.10364,-1.45369 0.25,-1.53125 z m 1,6 c 0.0209,-0.0111 0.0399,-0.008 0.0625,0 0.0603,0.0225 0.11815,0.10938 0.1875,0.28125 0.27741,0.6875 0.27741,1.8125 0,2.5 -0.27741,0.6875 -0.5,0.125 -0.5,-1.25 0,-0.90234 0.10364,-1.45369 0.25,-1.53125 z m 86.625,0.65625 c 0.21762,-0.0159 0.44236,0.0531 0.65625,0.28125 0.4424,0.47186 0.28536,1.05518 -0.34375,1.28125 -0.62937,0.22608 -0.90576,1.30137 -0.625,2.375 0.28079,1.07363 0.275,1.9375 0,1.9375 -0.275,0 -0.72827,-0.83589 -1,-1.875 -0.47948,-1.83354 0.36946,-3.93093 1.3125,-4 z m -85.65625,4.0625 c 0.0682,-0.0251 0.13568,0.0107 0.21875,0.0937 0.33225,0.3323 0.38263,1.18438 0.0937,1.90625 -0.31922,0.79773 -0.577,0.5712 -0.625,-0.59375 -0.0326,-0.79062 0.10788,-1.33091 0.3125,-1.40625 z m 84.03125,3.28125 c 0.0209,-0.0111 0.0399,-0.008 0.0625,0 0.0603,0.0225 0.11815,0.10938 0.1875,0.28125 0.27741,0.6875 0.27741,1.8125 0,2.5 -0.27741,0.6875 -0.5,0.125 -0.5,-1.25 0,-0.90234 0.10364,-1.45369 0.25,-1.53125 z m -5.15625,1.59375 c -0.0666,-0.006 -0.1455,0.0138 -0.21875,0.0312 -0.45581,0.10829 -1.04577,0.69118 -1.6875,1.71875 -0.92547,1.48191 -0.7708,1.82059 0.78125,1.9375 1.24314,0.0936 1.875,-0.5319 1.875,-1.8125 0,-1.19476 -0.28415,-1.8314 -0.75,-1.875 z m -91.34375,1.9375 c 1.06355,0 2.63159,3.20602 2.96875,6.0625 0.0688,0.58249 0.55051,0.81643 1.0625,0.5 0.512,-0.31644 1.25827,-0.0502 1.65625,0.59375 0.47385,0.76671 0.26369,0.88561 -0.5625,0.375 -0.928,-0.57354 -1.05864,-0.21947 -0.5625,1.34375 1.17385,3.69845 0.0394,2.31254 -2.75,-3.375 -1.4836,-3.025 -2.29768,-5.5 -1.8125,-5.5 z m 95.59375,1 1.3125,2.09375 c 0.72459,1.16024 0.84061,1.83376 0.25,1.46875 -0.96774,-0.5981 -1.48086,1.38023 -1.34375,5.1875 0.0246,0.68157 -0.30908,1.02251 -0.75,0.75 -0.44093,-0.27251 -1.02774,0.0591 -1.3125,0.75 -0.58424,1.41757 0.34291,-4.54531 1.25,-8 l 0.59375,-2.25 z M -326.875,239 c 0.21378,0.0111 1.06717,1.35625 2.0625,3.28125 1.13752,2.2 6.97979,8.88987 13,14.84375 6.02022,5.95389 10.82579,11.18552 10.65625,11.65625 -0.35984,0.99911 -9.30019,-1.97085 -13.6875,-4.5625 -1.66156,-0.98151 -2.76903,-2.20164 -2.46875,-2.6875 0.30029,-0.48589 -0.0698,-0.72828 -0.8125,-0.5625 -2.46449,0.55011 -7.90555,-2.41174 -9.3125,-5.0625 -1.29225,-2.43465 -1.17222,-2.83595 1.6875,-5.8125 2.95818,-3.07903 2.9619,-3.18128 0.65625,-2.6875 -2.06992,0.4433 -2.13985,0.37445 -0.625,-0.59375 1.59586,-1.01998 1.61788,-1.38606 0.25,-4.03125 -0.825,-1.59536 -1.49305,-3.24769 -1.46875,-3.6875 0.003,-0.055 0.032,-0.0953 0.0625,-0.0937 z m -41.78125,6.53125 c -0.55233,0.19834 -1.17347,0.38242 -1.78125,0.59375 0.14625,0.0327 0.29189,0.0589 0.4375,0.0937 l 1.34375,-0.6875 z m 105.375,2.40625 c -0.10033,0.003 -0.23976,0.0846 -0.40625,0.1875 -0.58005,0.35849 -1.25684,1.99952 -1.5,3.65625 -0.24316,1.65673 -0.0797,3 0.375,3 0.45475,0 0.84375,-0.85124 0.84375,-1.90625 0,-1.05502 0.28778,-2.69604 0.65625,-3.65625 0.31728,-0.82652 0.33225,-1.28972 0.0312,-1.28125 z m -57.75,3.09375 c -0.20918,0.0127 -0.44687,0.0266 -0.6875,0.0937 -5.51002,1.53663 -6.25039,1.86592 -5.78125,2.625 0.64306,1.0405 7.53125,-0.95758 7.53125,-2.1875 0,-0.37107 -0.43496,-0.56921 -1.0625,-0.53125 z m -13.75,0.21875 c 0.18302,-0.18302 1.72716,2.33243 3.4375,5.59375 1.71034,3.26132 3.01265,5.9375 2.875,5.9375 -0.98419,0 -6.94881,-10.89495 -6.3125,-11.53125 z m 123.71875,1.25 c -0.0823,0.65252 -0.17525,1.45121 0.0312,0.78125 0.27587,0.42431 0.15792,0.18437 -0.0312,-0.78125 z m -110.34375,2.71875 c -0.28857,-0.008 -0.88582,0.0981 -1.84375,0.28125 -1.50204,0.28714 -2.71875,0.92036 -2.71875,1.40625 0,1.2828 1.33369,1.07564 3.53125,-0.53125 1.12367,-0.82165 1.5122,-1.14319 1.03125,-1.15625 z m 0.875,2.5625 c -1.40746,0 -2.30801,0.40788 -2,0.90625 0.30801,0.49837 1.46304,0.66251 2.5625,0.375 2.75155,-0.71955 2.50155,-1.28125 -0.5625,-1.28125 z m 61.3125,1 c 0.275,0 -0.0653,0.675 -0.75,1.5 -0.68469,0.825 -1.475,1.5 -1.75,1.5 -0.275,0 0.0653,-0.675 0.75,-1.5 0.68469,-0.825 1.475,-1.5 1.75,-1.5 z m -53.75,4.125 c -0.45313,0 -0.90625,0.0801 -1.25,0.21875 -0.6875,0.27741 -0.125,0.5 1.25,0.5 1.375,0 1.9375,-0.22259 1.25,-0.5 -0.34375,-0.1387 -0.79687,-0.21875 -1.25,-0.21875 z m 44.5,5.875 c 0.825,0 1.5,0.1901 1.5,0.40625 0,0.21616 -0.675,0.65216 -1.5,0.96875 -0.825,0.31658 -1.5,0.12648 -1.5,-0.40625 0,-0.53274 0.675,-0.96875 1.5,-0.96875 z m -70.125,0.0937 c 0.19215,-0.0152 0.38658,-0.007 0.5625,0 2.35263,0.0941 2.30721,0.16518 -0.53125,0.84375 -1.69801,0.40594 -3.72301,1.0652 -4.5,1.46875 -0.77699,0.40355 -0.53637,0.0533 0.53125,-0.8125 0.93417,-0.75757 2.59247,-1.39371 3.9375,-1.5 z m 9.75,0.0312 c 0.725,-0.004 1.47179,0.0679 2.09375,0.1875 1.24391,0.23919 0.48125,0.4264 -1.71875,0.4375 -2.19996,0.0111 -3.23734,-0.18721 -2.28125,-0.4375 0.47805,-0.12516 1.18125,-0.18384 1.90625,-0.1875 z m 16.71875,2.5625 c 0.38455,-0.0526 1.01734,0.15173 2.0625,0.59375 1.42083,0.6009 3.00875,1.46071 3.53125,1.90625 0.53457,0.45583 -0.012,0.8125 -1.25,0.8125 -1.21,0 -2.1875,-0.43601 -2.1875,-0.96875 0,-0.53276 -0.61042,-0.71891 -1.34375,-0.4375 -0.73334,0.2814 -1.34375,-0.14239 -1.34375,-0.9375 0,-0.58488 0.1467,-0.91619 0.53125,-0.96875 z m -4.78125,0.4375 c 0.3474,-0.0143 0.76406,0.0431 1.125,0.1875 0.79773,0.31922 0.53995,0.577 -0.625,0.625 -1.05416,0.0434 -1.64479,-0.19896 -1.3125,-0.53125 0.16615,-0.16612 0.4651,-0.26695 0.8125,-0.28125 z m 50.875,0.875 c 0.58246,0 1.0625,0.45 1.0625,1 0,0.55 -0.19496,1 -0.4375,1 -0.24254,0 -0.72258,-0.45 -1.0625,-1 -0.33992,-0.55 -0.14496,-1 0.4375,-1 z m -14.8125,0.125 c 0.54375,-0.007 1.10726,0.0607 1.59375,0.1875 0.97297,0.25354 0.43125,0.4796 -1.21875,0.5 -1.65,0.0204 -2.45828,-0.19482 -1.78125,-0.46875 0.33852,-0.13698 0.8625,-0.21203 1.40625,-0.21875 z m -50.25,1 c 0.90625,0.002 1.76003,0.0688 2.375,0.1875 1.22994,0.23736 0,0.41325 -2.75,0.40625 -2.75,-0.008 -3.77006,-0.20765 -2.25,-0.4375 0.76003,-0.11496 1.71875,-0.15872 2.625,-0.15625 z m 44.75,1.03125 -0.40625,2.8125 c -0.31011,2.11295 0.0355,2.93223 1.34375,3.1875 1.64768,0.3215 1.64027,0.43602 -0.0937,1.84375 -1.01623,0.825 -1.56492,1.00487 -1.1875,0.375 0.37742,-0.62986 0.048,-1.41252 -0.75,-1.71875 -1.1412,-0.43792 -1.25097,-0.0757 -0.5625,1.65625 0.48143,1.2111 1.15067,3.07167 1.5,4.15625 0.53729,1.66814 0.79143,1.74518 1.65625,0.5 0.89361,-1.28667 0.9695,-1.27989 0.59375,0.0312 -0.23643,0.825 -1.13603,1.37084 -2,1.21875 -0.86396,-0.15209 -1.86982,0.18541 -2.21875,0.75 -0.34893,0.56459 -0.14496,1.03125 0.4375,1.03125 0.58246,0 1.0625,0.62708 1.0625,1.40625 0,0.77916 0.5625,1.66009 1.25,1.9375 0.73373,0.29607 0.51663,0.54745 -0.53125,0.59375 -1.48579,0.0657 -1.60133,0.4175 -0.6875,2.125 0.60388,1.12838 0.95396,3.04088 0.78125,4.25 -0.45213,3.16525 -1.69163,0.74174 -2.03125,-3.96875 -0.22774,-3.15868 -0.6853,-3.95745 -2.28125,-4.03125 -1.1,-0.0509 -1.4375,0.11023 -0.75,0.375 0.6875,0.26478 1.25,0.93212 1.25,1.46875 0,0.53666 -0.38542,0.72076 -0.84375,0.4375 -0.45834,-0.28327 -0.84375,0.14543 -0.84375,0.9375 0,0.98387 0.39046,1.13023 1.1875,0.46875 0.78586,-0.6522 1.15625,-0.55231 1.15625,0.3125 0,0.70613 -0.79176,1.363 -1.78125,1.4375 -1.60626,0.121 -1.83995,-0.96878 -2.09375,-10.0625 -0.25736,-9.22095 -0.47536,-10.17309 -2.15625,-10.03125 -1.23692,0.10437 -1.50949,-0.17801 -0.84375,-0.84375 0.66575,-0.66577 1.66726,-0.65076 3,0.0625 1.57266,0.84166 2.53259,0.6859 4.4375,-0.8125 l 2.40625,-1.90625 z m -34.5625,0.96875 c 0.3474,-0.0143 0.76406,0.0431 1.125,0.1875 0.79773,0.31922 0.53995,0.577 -0.625,0.625 -1.05416,0.0434 -1.64479,-0.19896 -1.3125,-0.53125 0.16615,-0.16612 0.4651,-0.26695 0.8125,-0.28125 z m -27.6875,2.0625 c 0.0682,-0.0251 0.13568,0.0107 0.21875,0.0937 0.33225,0.33229 0.38263,1.18437 0.0937,1.90625 -0.31922,0.79773 -0.577,0.5712 -0.625,-0.59375 -0.0326,-0.79062 0.10788,-1.33091 0.3125,-1.40625 z m 37.6875,0.9375 c 0.3474,-0.0143 0.76406,0.0431 1.125,0.1875 0.79773,0.31922 0.53995,0.577 -0.625,0.625 -1.05416,0.0434 -1.64479,-0.19896 -1.3125,-0.53125 0.16615,-0.16612 0.4651,-0.26695 0.8125,-0.28125 z m 104.78125,0.15625 c -1.1343,0.22815 -2.23448,0.53545 -3.3125,0.96875 -0.11424,0.0459 -0.20619,0.11054 -0.3125,0.15625 1.21724,-0.31818 2.44824,-0.58664 3.6875,-0.8125 -0.0168,-0.10427 -0.0461,-0.20871 -0.0625,-0.3125 z m -99.71875,0.84375 c 0.54375,-0.007 1.10726,0.0607 1.59375,0.1875 0.97297,0.25354 0.43125,0.4796 -1.21875,0.5 -1.65,0.0204 -2.45828,-0.19482 -1.78125,-0.46875 0.33852,-0.13698 0.8625,-0.21203 1.40625,-0.21875 z m 94.59375,1.0625 c -2.00568,1.37729 -0.87756,2.65109 0,3.78125 1.6e-4,-1.26039 -0.001,-2.52086 0,-3.78125 z m -128.21875,1.3125 2.25,1.90625 c 1.2375,1.04774 2.25,2.06024 2.25,2.25 0,0.80025 -0.80353,0.20819 -2.59375,-1.90625 l -1.90625,-2.25 z m 79.65625,0.125 c 0.0251,-9.6e-4 0.068,0.0153 0.0937,0.0312 0.4125,0.25494 0.75,2.20867 0.75,4.34375 0,2.13508 -0.3375,4.08881 -0.75,4.34375 -0.4125,0.25494 -0.75,-1.69879 -0.75,-4.34375 0,-2.47965 0.27928,-4.36054 0.65625,-4.375 z m -31.71875,3.21875 c -0.13231,0.11097 -0.21875,0.89297 -0.21875,2.15625 0,1.925 0.21722,2.7125 0.46875,1.75 0.25152,-0.9625 0.25152,-2.5375 0,-3.5 -0.0629,-0.24063 -0.13283,-0.3748 -0.1875,-0.40625 -0.0205,-0.0118 -0.0436,-0.0159 -0.0625,0 z m 25.03125,1.65625 c 0.0577,-0.005 0.11902,0.0807 0.1875,0.25 0.27397,0.67703 0.28479,2.02703 0.0312,3 -0.25354,0.97297 -0.4796,0.4 -0.5,-1.25 -0.0153,-1.2375 0.1083,-1.98439 0.28125,-2 z m -75.46875,2.5 c 0.0516,-0.0516 0.45697,0.25306 1.25,0.875 0.9625,0.75485 1.75,1.54235 1.75,1.75 0,0.82304 -0.81863,0.29075 -2.125,-1.375 -0.62194,-0.79303 -0.92662,-1.19838 -0.875,-1.25 z m 45.9375,1 c 0.58246,0 1.0625,0.45 1.0625,1 0,0.55 -0.19496,1 -0.4375,1 -0.24254,0 -0.72258,-0.45 -1.0625,-1 -0.33992,-0.55 -0.14496,-1 0.4375,-1 z m 13.5,2 c 0.85746,0 1.5625,0.19496 1.5625,0.4375 0,1.05548 -1.92919,1.51733 -2.5,0.59375 -0.34546,-0.55897 0.08,-1.03125 0.9375,-1.03125 z m -53.4375,2 c 0.0516,-0.0516 0.45697,0.25306 1.25,0.875 0.9625,0.75485 1.75,1.54235 1.75,1.75 0,0.82304 -0.81863,0.29075 -2.125,-1.375 -0.62194,-0.79303 -0.92662,-1.19838 -0.875,-1.25 z m 5.15625,0.5 c 0.82553,0.17521 4.25624,4.73957 4.46875,6.1875 0.10609,0.72289 0.008,1.3125 -0.21875,1.3125 -0.42779,0 -0.69864,-1.034 -0.5625,-2.125 0.0433,-0.34701 -0.79683,-1.43052 -1.875,-2.40625 -1.07817,-0.97573 -1.96875,-2.21107 -1.96875,-2.75 0,-0.0835 -9.5e-4,-0.15603 0.0312,-0.1875 0.0302,-0.0295 0.07,-0.0429 0.125,-0.0312 z m 34.84375,3.5 c 1.1,0 2,0.16415 2,0.375 0,0.21085 -0.9,0.61859 -2,0.90625 -1.1,0.28766 -2,0.12351 -2,-0.375 0,-0.49851 0.9,-0.90625 2,-0.90625 z m 26.09375,0.9375 c 0.0994,0.009 -0.0168,0.22701 -0.375,0.65625 -0.95511,1.14463 -1.49495,2.38213 -1.21875,2.75 0.2762,0.36787 0.21548,0.46756 -0.125,0.21875 -0.34047,-0.24881 -1.26369,0.20119 -2.0625,1 -0.79881,0.79881 -1.97303,1.4375 -2.59375,1.4375 -0.68099,0 -0.76074,-0.29277 -0.1875,-0.75 0.5225,-0.41676 2.5211,-2.10426 4.4375,-3.75 1.19775,-1.02859 1.95932,-1.57719 2.125,-1.5625 z m -20.09375,0.0625 c 0.048,0.0539 -0.24789,0.45783 -0.84375,1.21875 -0.73469,0.9384 -1.05007,2.15141 -0.71875,2.6875 0.33132,0.53609 0.22605,1.19385 -0.21875,1.46875 -1.60394,0.99129 -1.04852,-3.27754 0.59375,-4.5625 0.7505,-0.58722 1.13948,-0.86645 1.1875,-0.8125 z m 22.75,0 c 0.275,0 -0.0653,0.675 -0.75,1.5 -0.68469,0.825 -1.475,1.5 -1.75,1.5 -0.275,0 0.0653,-0.675 0.75,-1.5 0.68469,-0.825 1.475,-1.5 1.75,-1.5 z m -57.25,3.90625 3.1875,1.53125 c 1.75262,0.84635 3.47017,2.00859 3.8125,2.5625 1.13724,1.84008 -0.9591,1.04436 -4,-1.53125 l -3,-2.5625 z m 37.3125,2 c 0.20544,-0.0427 0.46157,0.0553 0.75,0.34375 0.31944,0.31944 0.4209,1.62152 0.21875,2.90625 l -0.375,2.34375 -0.78125,-2.3125 c -0.59008,-1.70549 -0.42883,-3.15319 0.1875,-3.28125 z m -10.125,0.125 c 0.65504,-0.008 1.47258,0.41875 1.8125,0.96875 0.7673,1.24153 0.42112,1.24153 -1.5,0 -0.90129,-0.58246 -1.02811,-0.95975 -0.3125,-0.96875 z m 1.75,4.96875 c 1.40746,0 2.5625,0.16415 2.5625,0.375 0,0.88773 -4.05017,1.36023 -4.5625,0.53125 -0.30801,-0.49837 0.59254,-0.90625 2,-0.90625 z m 8.9375,2.1875 c 0.0682,-0.0251 0.13567,0.0107 0.21875,0.0937 0.33225,0.33229 0.38262,1.18437 0.0937,1.90625 -0.31922,0.79773 -0.577,0.5712 -0.625,-0.59375 -0.0326,-0.79062 0.10788,-1.33091 0.3125,-1.40625 z"
         id="path4166" />
      <path
         sodipodi:nodetypes="ccsscssccsscccccsccccccccscccscccccccccccccccccccsscsccscccccccccccccsccsscsccscscscsccccssccsccccccccccssccccscccccccccccccccssssscscsssssscssssccccccccccccccccccssscsscscccssssssssscssssssssssssssssccccccscccssscccscccsssscccsssssssssssssccccscccsssscccscccccscscccscccssssscccsscccccccsssssssssssscscccccccccccsccsssscsssssssssssssssccccccccccsscssssssccscccccccc"
         inkscape:connector-curvature="0"
         style="fill:#e70203"
         d="m -319.375,135.5 c -8.6535,-9.93201 -7.84304,-6.53223 -8.98714,-5.88316 -2.92276,5.37756 -11.38242,3.93614 -14.78492,9.53642 -0.91409,1.50453 -1.65789,3.0974 -2.34375,4.71875 -2.38515,5.63838 -5.73145,11.25063 -7.6774,17.06148 -1.88751,5.39297 -13.06447,8.29837 -15.20657,13.60487 -0.35844,0.88794 -0.80423,1.73056 -1.21875,2.59375 -0.18454,0.38429 -0.51226,0.73292 -0.5625,1.15625 -0.0244,0.20535 -21.785,-2.35483 0.5,-0.375 -1.1825,5.33415 -3.12816,12.27457 -4.92137,17.43547 -1.34453,3.86957 -2.12969,6.14246 -4.40625,9.5625 -0.71345,1.07181 -1.64237,1.9814 -2.46875,2.96875 -0.7951,0.58406 -1.64002,1.05464 -2.46875,1.46875 0.10706,6.05669 0.0283,12.5197 0.008,18.57761 -0.0799,6.05883 0.2171,8.42508 -4.71875,11.03125 -0.16873,0.18464 -0.27719,0.30322 0.0312,0.3125 -0.31827,1.95869 -0.29621,3.97538 -0.59375,5.9375 -0.13969,0.92117 -0.8072,4.10424 -0.9375,5.46875 -0.0534,0.5587 0.0571,1.64739 0.0937,2.1875 -2.76511,4.31714 5.45638,19.9477 16.98573,24.18942 2.01858,6.20458 4.87828,19.51996 5.23184,20.64306 -0.0111,-0.0312 0.20715,0.61903 0.21875,0.65625 0.0111,0.0358 0.11601,0.37714 0.125,0.40625 0.10372,0.32094 0.0801,0.28539 0.75,2.3125 -0.52417,31.04102 7.17955,22.74853 27.23884,31.24599 4.17636,1.7989 7.58223,-4.47791 11.33162,-2.54733 0.80511,0.41456 1.58493,0.93107 2.40625,1.3125 0.47566,0.22089 0.97867,0.31326 1.46875,0.5 2.3071,0.87906 9.03829,10.89248 11.33061,11.8094 3.32917,0.53722 6.50256,-7.94408 9.6875,-6.80133 4.46527,1.60213 1.67026,0.90209 4.125,1.46875 2.04323,0.19072 3.9006,1.36107 5.90625,1.6875 0.0802,0.013 0.0756,-0.17711 0.15625,-0.1875 0.44278,-0.0571 0.89731,-0.027 1.34375,-0.0312 5.07194,0.62934 2.41506,0.22797 4.78125,0.71875 0.17921,0.0246 0.3913,0.0512 0.5,0.0625 0.0772,0.0292 0.29975,0.10955 0.21875,0.0937 -0.40796,-0.0797 -0.45775,-0.10212 -0.71875,-0.15625 -0.27372,-0.0376 -0.55153,-0.0567 -0.65625,-0.0625 0.0113,0.004 0.005,0.0239 0.0312,0.0312 3.55446,0.9774 4.57603,1.08885 5,1.125 -0.005,-0.007 -8.1e-4,-0.021 0.0625,0 0.17683,0.0134 0.32206,0.0692 0.53125,0.15625 0.41263,0.1308 0.89067,0.3034 1.40625,0.4375 0.0904,0.0235 0.13185,-0.15314 0.21875,-0.1875 0.0611,-0.0242 0.15511,-0.005 0.1875,-0.0625 0.0118,-0.0208 0.001,-0.0314 -0.0312,-0.0312 1.49961,-0.0974 2.99646,-0.13911 4.5,-0.15625 0.23796,-0.13484 0.55492,-0.30855 0.78125,-0.4375 1.94172,-1.01733 3.89961,-1.99195 5.8125,-3.0625 5.28924,-2.96011 16.31205,-5.97429 21.87494,-8.47783 1.91948,-0.86385 3.96284,-1.45854 5.9375,-2.1875 6.12217,-1.47619 6.92284,-6.91718 12.49803,-9.77014 4.23284,-2.16605 4.98884,-2.54347 6.375,-3.375 0.81671,-1.60576 1.63369,-3.21606 2.78125,-4.625 1.35338,-1.96242 2.78126,-4.10366 4.21875,-5.96875 0.23783,-0.30857 0.57039,-0.50728 0.8125,-0.8125 0.36088,-0.45498 3.63766,-5.80165 3.73889,-5.22981 0.0899,0.50788 -3.40638,5.37023 -3.64514,5.69856 1.44484,-1.6172 5.42209,-7.19954 6.70764,-8.94856 -0.0811,0.0726 -0.16801,0.12981 -0.25,0.15625 -0.0959,0.0309 -0.0335,-0.2354 0.0312,-0.3125 0.23482,-0.27946 0.53958,-0.5063 0.8125,-0.75 0.27979,-0.54453 0.48985,-1.07104 0.5,-1.09375 2.23044,-4.99 0.47417,-1.68601 2.8125,-5.8125 0.52779,-0.72385 0.75546,-1.83258 1.5,-2.25 0.008,-6.67696 9.089,-20.51759 9.0594,-27.19449 -0.0221,-2.72 -0.25001,-5.51402 0.15625,-8.21875 -0.0195,-0.10297 -0.0104,-0.0985 -0.0312,-0.21875 -0.16956,-0.97887 -0.3739,-1.95659 -0.53125,-2.9375 -1.06518,-6.64004 1.0304,4.64744 -0.90625,-5.40625 -0.10207,-0.59374 -0.17079,-1.18404 -0.25,-1.78125 0.70062,0.12716 0.19026,0.0931 -0.46875,-1.4375 -0.36412,-0.84568 13.35217,-4.2312 -1.09375,-2.5625 -2.03488,0.23505 -0.95474,-3.90061 -1.8125,-5.78125 -0.2136,-0.99719 -1.65861,-2.81209 -0.65625,-3 13.37344,-2.50715 -0.24208,-1.22332 -0.21875,-1.84375 0.004,-0.1048 0.34681,0.0366 0.3125,-0.0625 -0.39714,-1.14727 -1.06777,-2.20924 -1.5,-3.34375 -1.59264,-4.18037 -0.61642,-7.1228 -1.43852,-11.01208 -0.16131,-0.75277 -0.26205,-1.50842 -0.46875,-2.25 -0.49367,-1.77109 -1.29645,-3.43693 -1.65625,-5.25 -0.33331,-1.21729 -0.53525,-2.47198 -0.875,-3.6875 -0.28357,-1.01452 -0.6295,-2.02387 -0.9375,-3.03125 -1.07576,-4.51012 -2.26642,-9.21058 -2.84375,-13.78125 -1.06137,-8.40275 -9.32628,-14.93207 -9.3961,-23.4133 -0.0316,-3.84321 -0.0957,-7.68791 -0.0937,-11.53125 7.2e-4,-1.1239 0.0204,-2.25115 0.0312,-3.375 -1.04708,-1.377 -2.06065,-2.78083 -3.03125,-4.21875 -1.27111,-0.14599 -2.69458,-0.4387 -4.5,-0.96875 -1.92318,-0.56462 -3.61841,-1.76114 -5.34375,-2.78125 -0.26627,-0.15743 -0.73663,-0.44526 -1.15625,-0.71875 -0.78,-0.2557 -1.53872,-0.50736 -2.25,-0.78125 -0.4958,0.14706 -1.05923,0.2936 -1.34375,0.375 -4.95878,1.41865 -18.26452,2.71933 -23.43541,3 -1.40609,0.15788 -2.80796,0.36053 -4.21875,0.46875 -1.03179,0.0791 -3.63491,-0.009 -3.65625,-0.0625 -0.0119,-0.0299 0.0305,-0.0718 0.0625,-0.0937 1.91658,-6.20025 1.50521,-7.97006 -1.84375,0.375 -4.30644,-0.80541 -6.38241,-1.57369 -9.16432,-3.85785 -0.64007,-0.34839 -5.0829,-3.22073 -5.66731,-3.6532 -9.3e-4,-6.9e-4 0.0872,0.0287 0.0937,0.0312 0.038,-0.0394 1.57963,2.06583 1.63104,2.04433 -2.42537,-0.17291 -5.18864,-3.11569 -5.50604,-5.26308 -1.24046,0.57601 -4.13739,-2.16731 -5.40422,-1.65219 -0.92596,0.37652 -1.89405,0.6257 -2.84375,0.9375 -3.39245,1.11377 -7.60818,3.39675 -11.17841,3.8891 -0.52246,0.072 -5.91207,-15.5916 -1.59375,0 -3.01979,-0.0166 -6.04302,-0.0479 -9.0625,-0.0937 -0.31149,-0.005 -0.62593,-0.0286 -0.9375,-0.0312 -0.72559,0.45923 -1.36401,0.79428 -1.625,0.1875 -1.32605,-3.08291 1.69349,7.49955 0.61992,5.24989 z m 112.16122,157.89412 c -0.10689,0.20803 -0.2179,0.41882 -0.34375,0.59375 0.19875,-0.26808 10.92519,3.03391 0.59375,-0.8125 -0.0808,0.0772 -0.16643,0.14412 -0.25,0.21875 z M -233.3015,133.368 c -0.2564,0.0785 -0.42491,0.11813 -0.65625,0.1875 0.46902,0.23339 0.83954,0.35832 1.53125,0.625 -0.44648,-0.31268 -0.71179,-0.55709 -0.46875,-0.5625 -0.13304,-0.0873 -0.27258,-0.16377 -0.40625,-0.25 z m -43.36688,-0.0383 c -0.15745,0.004 -5.37481,-3.12965 -5.52516,-3.12905 0.19949,0.0279 5.42646,3.19685 5.52516,3.12905 z m -14.73787,8.76405 c 0.0222,-0.0148 0.0714,-0.0223 0.0937,0 0.55744,0.55743 3.1376,26.89325 3.28125,33.4375 0.10397,4.73632 1.87423,1.71456 8.0625,-13.71875 3.51961,-8.77776 6.55875,-15.785 6.75,-15.59375 0.19124,0.19124 -1.52226,6.81974 -3.8125,14.71875 -4.11338,14.18724 -5.43893,20.86385 -4.125,20.84375 0.37114,-0.006 4.7375,-5.63245 9.6875,-12.5 4.95,-6.86755 9.12963,-12.498 9.28125,-12.5 0.39405,-0.005 -2.36205,5.286 -7.5,14.375 -2.44704,4.3288 -4.66581,8.95532 -4.90625,10.28125 -0.43148,2.37951 -0.34357,2.35333 6.34375,-1.3125 3.72638,-2.04272 8.97711,-4.98796 11.65625,-6.5625 7.80559,-4.58737 6.30568,-2.60928 -2.6875,3.5625 -4.55395,3.12525 -9.11248,7.1226 -10.15625,8.90625 -1.83791,3.1408 -1.84572,3.20272 -0.0312,1.75 1.70188,-1.36259 1.82258,-1.32946 1.21875,0.28125 -0.55971,1.49299 -0.39095,1.61149 1.21875,0.75 2.58129,-1.38146 3.71914,-1.28164 2.25,0.1875 -1.86322,1.86318 -1.39862,2.96241 0.75,1.8125 3.20106,-1.71315 3.54595,-1.1788 1,1.53125 l -2.40625,2.5625 2.875,-1.09375 c 3.87238,-1.47228 4.4539,-0.58206 0.9375,1.4375 l -2.84375,1.625 3,-0.5625 3,-0.59375 -2.5,2.125 -2.5,2.09375 3,-0.59375 3,-0.59375 -2.4375,2.09375 -2.46875,2.0625 2.96875,-0.625 2.9375,-0.65625 -2.5,2.09375 -2.5,2.09375 2.8125,-1 c 4.09897,-1.48017 4.50027,-1.23323 1.6875,1.0625 -2.41574,1.97168 -2.42417,2.01508 -0.25,1.40625 3.13241,-0.87718 2.80897,-0.0685 -1,2.5 -1.7875,1.20535 -2.575,1.96108 -1.75,1.6875 0.825,-0.27357 2.4,-0.8114 3.5,-1.1875 1.48904,-0.50911 1.23356,0.0265 -1,2.09375 -1.65,1.5271 -2.325,2.55329 -1.5,2.25 0.825,-0.3033 2.625,-0.88543 4,-1.28125 2.41725,-0.69585 2.4007,-0.62423 -0.5,1.875 l -3,2.5625 2.8125,-1 c 3.48437,-1.2403 3.6875,-1.23843 3.6875,0 0,0.55 -0.61734,1 -1.375,1 -0.75765,0 -1.89599,0.58471 -2.5,1.3125 -0.87945,1.05967 -0.42699,1.26897 2.15625,1 3.00849,-0.31326 3.06721,-0.2432 0.96875,0.84375 -3.12184,1.61704 -2.81842,3.02105 0.5,2.3125 2.51564,-0.53714 2.5855,-0.47452 0.96875,0.84375 -1.04225,0.84982 -1.4932,2.10301 -1.125,3.0625 0.98209,2.5593 1.76327,1.95601 3.75,-2.875 1.75026,-4.25603 4.38267,-6.48498 3.25,-2.75 -0.2919,0.9625 -1.01212,3.94049 -1.59375,6.59375 -1.00519,4.58535 -0.8836,5.0555 2.125,9.5 6.77265,10.00501 4.81623,17.12148 -7.15625,26.125 -4.41825,3.3226 -8.36968,6.03125 -8.78125,6.03125 -0.41158,0 -1.50092,0.90615 -2.4375,2 -1.6206,1.89273 -1.58662,2.22033 1.25,7.03125 1.63935,2.78035 3,6.4466 3,8.125 0,4.9289 -6.80821,13.6401 -13.21875,16.9375 -5.3196,2.73627 -5.79796,2.35524 -1.5,-1.1875 6.95915,-5.73632 8.52115,-12.57867 4.65625,-20.5625 -3.28351,-6.78281 -10.68081,-10.15924 -16,-7.3125 -2.43563,1.30351 -2.65585,5.96875 -0.28125,5.96875 1.53998,0 1.53998,0.14209 0,1.84375 -2.11681,2.33904 -2.22324,5.60568 -0.15625,4.8125 0.825,-0.31658 1.5,-0.21539 1.5,0.25 0,0.46539 -0.675,1.40906 -1.5,2.09375 -2.78843,2.31419 -1.84185,4.22378 1.75,3.53125 l 3.25,-0.625 -2.75,2.125 c -3.56707,2.7636 -3.85996,7.62031 -0.5,8.28125 l 2.25,0.4375 -2.25,0.75 c -1.64118,0.54238 -2.25,1.52183 -2.25,3.625 0,2.30344 0.45254,2.8834 2.25,2.9375 l 2.25,0.0625 -2.25,1.09375 c -1.2375,0.59683 -2.25,1.69655 -2.25,2.4375 0,0.87298 -1.23201,1.34375 -3.5,1.34375 -1.925,0 -3.5,-0.46764 -3.5,-1.03125 0,-0.56361 -1.2375,-1.54501 -2.75,-2.1875 l -2.75,-1.15625 2.75,-0.375 c 1.5125,-0.20542 2.75,-0.94271 2.75,-1.625 0,-0.6823 -1.2375,-1.71483 -2.75,-2.3125 l -2.75,-1.09375 2.75,-0.0937 c 3.68451,-0.14253 3.87844,-3.80807 0.25,-4.71875 -1.375,-0.3451 -2.5,-1.00962 -2.5,-1.5 0,-0.49037 1.125,-0.90625 2.5,-0.90625 2.08864,0 2.5,-0.46607 2.5,-2.875 0,-2.10317 -0.60882,-3.08262 -2.25,-3.625 l -2.25,-0.75 2.25,-0.4375 c 1.81006,-0.35606 2.25,-1.11531 2.25,-3.875 0,-1.88675 -0.44534,-3.4375 -1,-3.4375 -0.60203,0 -0.51758,-0.78971 0.21875,-1.96875 1.97245,-3.1584 -0.24861,-4.59723 -4.0625,-2.625 -4.32251,2.23526 -7.46004,2.02879 -18.75,-1.375 -11.09848,-3.34606 -19.3911,-3.92141 -21.84375,-1.46875 -2.29069,2.29069 -1.93907,4.24805 1.4375,8.09375 1.65102,1.88041 4.0896,5.59005 5.4375,8.25 1.3479,2.65996 5.26769,7.374 8.6875,10.46875 3.4198,3.09475 5.85758,5.625 5.4375,5.625 -1.6042,0 -20.28933,-14.60357 -24.875,-19.4375 -6.03015,-6.35661 -7.08893,-8.81521 -5.65625,-13.15625 2.45212,-7.42999 13.95192,-9.58619 28.125,-5.28125 3.8271,1.16244 7.15487,1.90762 7.40625,1.65625 0.25138,-0.25138 -3.65532,-2.90144 -8.6875,-5.875 l -9.15625,-5.40625 -7.28125,-15.25 c -4.00809,-8.3875 -6.99717,-15.23575 -6.625,-15.21875 0.37217,0.017 4.38969,5.37793 8.9375,11.90625 l 7,10.03125 2.625,-2.78125 c 2.83278,-3.00902 2.84097,-3.06333 0.5,-2.5625 -1.93499,0.41397 -2.06553,0.31809 -0.75,-0.53125 1.45104,-0.93682 1.2554,-1.92181 -1.8125,-9.5625 -3.18698,-7.93728 -5.1771,-15.6256 -6.84375,-26.53125 -0.9178,-6.00557 0.52795,-4.35123 3.9375,4.5 l 2.71875,7 4.4375,-0.34375 c 5.27909,-0.41986 5.98234,-2.15625 0.875,-2.15625 -4.74358,0 -3.45781,-1.95646 1.375,-2.09375 l 3.6875,-0.125 -4,-1.21875 -4,-1.25 4,-1.03125 c 2.2,-0.58066 3.1,-1.1222 2,-1.1875 -1.1,-0.0653 -2.675,-0.5919 -3.5,-1.15625 -1.14623,-0.78407 -0.67453,-0.98405 2,-0.875 5.48195,0.22353 5.80997,-0.1108 1.5,-1.53125 l -4,-1.3125 3.8125,-0.0937 c 3.86772,-0.10647 4.40124,-2.125 0.5625,-2.125 -3.3142,0 -1.00415,-1.98335 2.4375,-2.09375 l 3.1875,-0.0937 -3.3125,-0.78125 c -4.93276,-1.16823 -5.06721,-2.03125 -0.3125,-2.03125 2.56248,0 3.99978,-0.39359 3.625,-1 -0.33992,-0.55 -1.71996,-1 -3.0625,-1 -1.34254,0 -2.4375,-0.48357 -2.4375,-1.09375 0,-0.6791 1.35769,-0.96885 3.5,-0.71875 4.21753,0.49238 4.39824,0.16919 0.75,-1.40625 l -2.75,-1.1875 3.75,-0.375 c 3.77043,-0.34927 4.3528,-2.21875 0.6875,-2.21875 -1.06754,0 -1.9375,-0.4954 -1.9375,-1.09375 0,-0.7091 1.47982,-0.86719 4.25,-0.46875 l 4.25,0.625 -3,-1.53125 -3,-1.53125 4.5,0.375 4.5,0.40625 -3.3125,-1.40625 c -1.81264,-0.77344 -3.07527,-1.76233 -2.8125,-2.1875 0.26277,-0.42518 -3.97487,-3.59453 -9.4375,-7.0625 -5.46263,-3.46796 -9.9375,-6.49479 -9.9375,-6.71875 0,-0.22396 5.85,2.51088 13,6.09375 7.15,3.58287 13,6.20887 13,5.84375 0,-0.69197 -11.24637,-21.16751 -13.78125,-25.09375 -0.79897,-1.2375 -1.2148,-2.25 -0.90625,-2.25 0.30854,0 5.15119,5.9625 10.75,13.25 5.59882,7.2875 9.93698,12.35 9.625,11.25 -6.46841,-22.807 -7.79196,-27.73929 -7.4375,-28.09375 0.23178,-0.23178 2.64858,5.6629 5.34375,13.09375 2.69517,7.43084 5.2406,13.5 5.65625,13.5 0.41566,0 0.8063,-3.15 0.875,-7 0.0688,-3.85 0.2375,-7.45 0.375,-8 0.1375,-0.55 0.3063,-5.78924 0.375,-11.65625 0.0645,-5.49999 0.35434,-9.80915 0.6875,-10.03125 z m -36.8125,110.65625 -0.25,0.28125 0.375,-0.0937 -0.125,-0.1875 z m 0.125,0.1875 1.15625,1.65625 3.46875,-1.0625 c 3.45068,-1.05904 5.1124,-3.34396 1.75,-2.40625 -0.9625,0.26842 -2.875,0.80355 -4.25,1.1875 z m 2.375,-30.09375 c -0.89824,0.0833 -1.25,0.55796 -1.25,1.4375 0,0.99331 0.98996,1.5 2.9375,1.5 3.64273,0 4.80908,-1.56347 1.78125,-2.375 -1.33381,-0.35749 -2.33372,-0.54593 -3.0625,-0.5625 -0.15183,-0.003 -0.27793,-0.0119 -0.40625,0 z m 71.75,11.9375 c -0.55,0 -1,0.45 -1,1 0,0.55 0.45,1 1,1 0.55,0 1,-0.45 1,-1 0,-0.55 -0.45,-1 -1,-1 z M -249.5,241.125 c -0.31634,0.0161 -0.74835,1.23512 -1.125,3.625 -0.51687,3.27961 -4.02245,10.03125 -5.21875,10.03125 -0.37709,0 -1.44883,1.27587 -2.375,2.84375 -0.92617,1.56788 -3.56163,4.71788 -5.84375,7 -4.62298,4.62298 -4.59551,4.76945 0.3125,2.71875 3.46124,-1.4462 10.02827,-9.06263 13.15625,-15.25 0.88984,-1.76019 1.625,-5.11852 1.625,-7.4375 0,-2.3707 -0.21491,-3.54735 -0.53125,-3.53125 z m -145.91308,0.61394 c -0.55233,0.19834 -1.17347,0.38242 -1.78125,0.59375 0.14625,0.0327 0.29189,0.0589 0.4375,0.0937 l 1.34375,-0.6875 z m 202.2587,7.17944 c -0.0823,0.65252 -0.17525,1.45121 0.0312,0.78125 0.27587,0.42431 0.15792,0.18437 -0.0312,-0.78125 z m -128.25187,6.30037 c -0.28857,-0.008 -0.88582,0.0981 -1.84375,0.28125 -1.50204,0.28714 -2.71875,0.92036 -2.71875,1.40625 0,1.2828 1.33369,1.07564 3.53125,-0.53125 1.12367,-0.82165 1.5122,-1.14319 1.03125,-1.15625 z m 0.875,2.5625 c -1.40746,0 -2.30801,0.40788 -2,0.90625 0.30801,0.49837 1.46304,0.66251 2.5625,0.375 2.75155,-0.71955 2.50155,-1.28125 -0.5625,-1.28125 z m 6.625,5.125 c -0.3474,0.0143 -0.64635,0.1151 -0.8125,0.28125 -0.33229,0.33229 0.25834,0.57465 1.3125,0.53125 1.16495,-0.048 1.42273,-0.30578 0.625,-0.625 -0.36094,-0.14445 -0.7776,-0.2018 -1.125,-0.1875 z m 116.62997,19.73787 c -1.1343,0.22815 -2.23448,0.53545 -3.3125,0.96875 -0.11424,0.0459 -0.20619,0.11054 -0.3125,0.15625 1.21724,-0.31818 2.44824,-0.58664 3.6875,-0.8125 -0.0168,-0.10427 -0.0461,-0.20871 -0.0625,-0.3125 z m -5.125,1.90625 c -2.00568,1.37729 -0.87756,2.65109 0,3.78125 1.6e-4,-1.26039 -10e-4,-2.52086 0,-3.78125 z"
         id="path4164" />
    </g>
  </g>
</svg>
